<?xml version="1.0" standalone="no"?>
<!DOCTYPE svg PUBLIC "-//W3C//DTD SVG 20010904//EN"
 "http://www.w3.org/TR/2001/REC-SVG-20010904/DTD/svg10.dtd">
<svg version="1.0" xmlns="http://www.w3.org/2000/svg"
 width="150.000000pt" height="150.000000pt" viewBox="0 0 150.000000 150.000000"
 preserveAspectRatio="xMidYMid meet">

<g transform="translate(0.000000,150.000000) scale(0.100000,-0.100000)"
fill="#000000" stroke="none">
<path d="M580 1404 c-179 -46 -350 -185 -429 -345 -55 -113 -71 -182 -71 -309
0 -195 59 -339 194 -474 137 -137 281 -196 476 -196 195 0 340 59 475 195 136
135 195 280 195 475 0 195 -59 339 -196 476 -89 89 -193 150 -309 179 -75 19
-261 19 -335 -1z m234 -107 c27 -20 18 -61 -15 -65 -25 -3 -27 -8 -33 -65 -4
-34 -10 -72 -13 -84 -4 -20 -1 -23 26 -23 31 0 80 38 82 64 1 6 2 20 3 31 2
30 50 28 54 -2 3 -17 -2 -23 -16 -23 -10 0 -24 -11 -30 -25 -17 -36 -15 -45 8
-45 32 0 92 -28 123 -58 68 -64 87 -147 63 -273 -26 -141 -44 -190 -83 -225
l-35 -32 53 -94 c30 -51 60 -93 67 -94 28 -2 32 -5 32 -23 0 -24 -36 -51 -66
-51 -27 0 -34 16 -21 51 8 21 4 36 -22 86 -18 33 -47 73 -64 89 -32 29 -33 29
-143 26 l-112 -3 -42 -92 c-39 -86 -41 -93 -27 -117 11 -18 12 -31 6 -43 -12
-21 -31 -22 -69 -2 -45 23 -37 67 14 76 22 4 62 92 68 148 3 32 1 35 -42 49
-53 17 -96 46 -110 72 -13 25 -70 274 -70 307 0 72 59 125 177 160 35 10 63
21 63 24 0 4 -15 29 -32 55 -24 36 -41 50 -63 54 -51 9 -42 70 10 70 23 0 40
-24 30 -41 -3 -5 12 -32 35 -60 22 -28 43 -57 48 -65 4 -8 16 -11 29 -8 23 6
36 45 48 139 6 46 5 51 -17 60 -34 15 -34 41 -1 53 39 15 66 14 87 -1z"/>
<path d="M685 955 c-108 -28 -134 -61 -115 -149 16 -76 70 -152 117 -165 50
-14 159 -13 203 2 68 23 104 158 64 243 -34 72 -144 100 -269 69z"/>
</g>
</svg>
